HIERARCHY
ROOT Hips
{
	OFFSET	0.00	0.00	0.00
	CHANNELS 6 Xposition Yposition Zposition Zrotation Xrotation Yrotation
	JOINT LeftUpLeg
	{
		OFFSET	 0.126116	-0.014019	-0.065224
		CHANNELS 3 Zrotation Xrotation Yrotation
		JOINT LeftLeg
		{
			OFFSET	 0.000000	 0.000000	 0.569914
			CHANNELS 3 Zrotation Xrotation Yrotation
			JOINT LeftFoot
			{
				OFFSET	 0.000000	 0.000000	 0.544423
				CHANNELS 3 Zrotation Xrotation Yrotation
				JOINT LeftToeBase
				{
					OFFSET	 0.000000	 0.000000	 0.207117
					CHANNELS 3 Zrotation Xrotation Yrotation
					End Site
					{
						OFFSET	 0.000000	 0.000000	 0.207117
					}
				}
			}
		}
	}
	JOINT RightUpLeg
	{
		OFFSET	-0.124023	-0.008373	-0.065224
		CHANNELS 3 Zrotation Xrotation Yrotation
		JOINT RightLeg
		{
			OFFSET	 0.000000	 0.000000	 0.570047
			CHANNELS 3 Zrotation Xrotation Yrotation
			JOINT RightFoot
			{
				OFFSET	 0.000000	 0.000000	 0.544354
				CHANNELS 3 Zrotation Xrotation Yrotation
				JOINT RightToeBase
				{
					OFFSET	 0.000000	 0.000000	 0.207540
					CHANNELS 3 Zrotation Xrotation Yrotation
					End Site
					{
						OFFSET	 0.000000	 0.000000	 0.207540
					}
				}
			}
		}
	}
	JOINT Spine
	{
		OFFSET	 0.000184	-0.007763	 0.117403
		CHANNELS 3 Zrotation Xrotation Yrotation
		JOINT Spine1
		{
			OFFSET	 0.000000	 0.000000	 0.137269
			CHANNELS 3 Zrotation Xrotation Yrotation
			JOINT Spine2
			{
				OFFSET	 0.000000	 0.000000	 0.156879
				CHANNELS 3 Zrotation Xrotation Yrotation
				JOINT LeftShoulder
				{
					OFFSET	 0.080501	-0.002496	 0.160144
					CHANNELS 3 Zrotation Xrotation Yrotation
					JOINT LeftArm
					{
						OFFSET	 0.000000	 0.000000	 0.164363
						CHANNELS 3 Zrotation Xrotation Yrotation
						JOINT LeftForeArm
						{
							OFFSET	 0.000000	 0.000000	 0.364576
							CHANNELS 3 Zrotation Xrotation Yrotation
							JOINT LeftHand
							{
								OFFSET	 0.000000	 0.000000	 0.360812
								CHANNELS 3 Zrotation Xrotation Yrotation
								JOINT LeftHandIndex1
								{
									OFFSET	 0.000000	 0.000000	 0.086006
									CHANNELS 3 Zrotation Xrotation Yrotation
									JOINT LeftHandIndex2
									{
										OFFSET	 0.000000	 0.000000	 0.047236
										CHANNELS 3 Zrotation Xrotation Yrotation
										JOINT LeftHandIndex3
										{
											OFFSET	-0.004284	-0.000551	 0.038166
											CHANNELS 3 Zrotation Xrotation Yrotation
											End Site
											{
												OFFSET	-0.004284	-0.000551	 0.038166
											}
										}
									}
								}
							}
						}
					}
				}
				JOINT Neck
				{
					OFFSET	 0.000000	 0.000000	 0.176489
					CHANNELS 3 Zrotation Xrotation Yrotation
					JOINT Head
					{
						OFFSET	 0.000000	-0.001747	 0.077940
						CHANNELS 3 Zrotation Xrotation Yrotation
						End Site
						{
							OFFSET	 0.000000	-0.001747	 0.077940
						}
					}
				}
				JOINT RightShoulder
				{
					OFFSET	-0.080363	 0.000306	 0.159706
					CHANNELS 3 Zrotation Xrotation Yrotation
					JOINT RightArm
					{
						OFFSET	 0.000000	 0.000000	 0.164196
						CHANNELS 3 Zrotation Xrotation Yrotation
						JOINT RightForeArm
						{
							OFFSET	 0.000000	 0.000000	 0.365611
							CHANNELS 3 Zrotation Xrotation Yrotation
							JOINT RightHand
							{
								OFFSET	 0.000000	 0.000000	 0.360648
								CHANNELS 3 Zrotation Xrotation Yrotation
								JOINT RightHandIndex1
								{
									OFFSET	 0.000000	 0.000000	 0.069977
									CHANNELS 3 Zrotation Xrotation Yrotation
									JOINT RightHandIndex2
									{
										OFFSET	 0.000000	 0.000000	 0.052305
										CHANNELS 3 Zrotation Xrotation Yrotation
										JOINT RightHandIndex3
										{
											OFFSET	 0.009002	-0.000782	 0.042196
											CHANNELS 3 Zrotation Xrotation Yrotation
											End Site
											{
												OFFSET	 0.009002	-0.000782	 0.042196
											}
										}
									}
								}
							}
						}
					}
				}
			}
		}
	}
}
MOTION
Frames:    9
Frame Time: 0.03333334
-8.989108	-21.858760	-0.296681	-48.103860	 8.044188	 1.732540	 4.534497	-22.128880	 174.169700	-1.678814	-40.174950	-0.214203	 0.127406	 84.686620	-0.617903	-2.385751	 28.469590	-0.000366	-2.467655	-23.015650	-178.759600	-0.120044	-41.027730	 0.010949	-0.277317	 85.603010	 0.534583	 2.407692	 17.439060	-0.223497	 4.037974	 8.526890	-0.672376	 7.226168	 6.141811	-2.543673	 8.847836	 4.059119	 0.272695	-115.678600	 89.396720	-153.543300	 56.039280	 59.806650	-78.143090	-3.650167	-4.362326	-20.903320	 5.685235	-10.594020	-5.425946	-3.812334	 37.924440	-2.927599	-2.450526	 36.184240	 0.754587	-1.378229	 35.397820	-2.634230	 0.456305	 2.626074	-0.627554	 2.855821	 7.250420	-0.608704	 94.719230	 86.905100	 171.576200	-53.473220	 70.157620	 71.754960	-3.210053	-12.981060	 25.872140	-22.582500	-11.501460	 9.767273	 6.437017	 35.671460	-0.771858	 2.830251	 35.756010	-7.813440	-2.350882	 35.473990	 5.254307
-8.987097	-21.858220	-0.299236	-48.155560	 8.033917	 1.826473	 4.509516	-22.758800	 174.072800	-1.774564	-41.143970	-0.312751	 0.170870	 84.991130	-0.755076	-2.385257	 28.581350	-0.002782	-2.429248	-23.520620	-178.751200	-0.066925	-41.812830	 0.089600	-0.639393	 85.859300	 0.984913	 2.407652	 17.923910	-0.214013	 4.025688	 8.665209	-0.774401	 7.196082	 5.980669	-2.582038	 8.796683	 3.843580	 0.287713	-115.203000	 89.374110	-153.963900	 55.493240	 58.606640	-77.646300	-3.663566	-4.047216	-21.724250	 4.521678	-10.584000	-5.434285	-3.812334	 37.924440	-2.927599	-2.450526	 36.184240	 0.754587	-1.378229	 35.397820	-2.634230	 0.432085	 2.378280	-0.574244	 2.837492	 7.200725	-0.711022	 94.733310	 86.885230	 171.521900	-53.100780	 69.256640	 71.863980	-3.264518	-12.988510	 26.523730	-22.073170	-11.499740	 9.770334	 6.437017	 35.671460	-0.771858	 2.830251	 35.756010	-7.813440	-2.350882	 35.473990	 5.254307
-8.983651	-21.856850	-0.303330	-48.280640	 8.088630	 1.851346	 4.613852	-23.713450	 174.018100	-1.886990	-42.520940	-0.350211	 0.499132	 85.389210	-1.096453	-2.384940	 28.651740	-0.004308	-2.400787	-24.392080	-178.657300	-0.059885	-43.050250	 0.148216	-1.099156	 86.185360	 1.495024	 2.407545	 18.387360	-0.204928	 4.030431	 8.960171	-0.832621	 7.154130	 5.785209	-2.589450	 8.709858	 3.579711	 0.304978	-114.064400	 89.318150	-154.988400	 54.407150	 57.503540	-77.081810	-3.179816	-4.113548	-22.936160	 4.279032	-10.560160	-5.440873	-3.812334	 37.924440	-2.927599	-2.450526	 36.184240	 0.754587	-1.378229	 35.397820	-2.634230	 0.392419	 1.978805	-0.549737	 2.779345	 7.180145	-0.683726	 94.783590	 86.860130	 171.397200	-52.226510	 68.083280	 71.735010	-3.316651	-13.172540	 27.659490	-21.550460	-11.509380	 9.761731	 6.437017	 35.671460	-0.771858	 2.830251	 35.756010	-7.813440	-2.350882	 35.473990	 5.254307
-8.979004	-21.854360	-0.308613	-48.435840	 8.234416	 1.839705	 4.748106	-24.918740	 173.994500	-2.030236	-44.200480	-0.391979	 0.847311	 85.859570	-1.452284	-2.384330	 28.786080	-0.007217	-2.358542	-25.724280	-178.548400	-0.119623	-44.647960	 0.176566	-1.634857	 86.565960	 2.036616	 2.407216	 19.087650	-0.191149	 4.004420	 9.372325	-0.875646	 7.091824	 5.536349	-2.574220	 8.642648	 3.268869	 0.326116	-112.889900	 89.253490	-156.037200	 53.049290	 56.598700	-76.710010	-3.134827	-4.229185	-24.616260	 4.041000	-10.536660	-5.447172	-3.812334	 37.924440	-2.927599	-2.450526	 36.184240	 0.754587	-1.378229	 35.397820	-2.634230	 0.377345	 1.519928	-0.550912	 2.746575	 7.088557	-0.526079	 94.843180	 86.805920	 171.209000	-51.172030	 66.884650	 71.890110	-3.177161	-13.455170	 29.018850	-21.086790	-11.505150	 9.769573	 6.437017	 35.671460	-0.771858	 2.830251	 35.756010	-7.813440	-2.350882	 35.473990	 5.254307
-8.971163	-21.849610	-0.316594	-48.690670	 8.627379	 1.692798	 4.806991	-27.031750	 174.099800	-2.365762	-46.765350	-0.621157	 1.114666	 86.575150	-1.881285	-2.383079	 29.054900	-0.013066	-2.221453	-27.923040	-178.446400	-0.145768	-47.170200	 0.306289	-2.178265	 87.143640	 2.659948	 2.406368	 20.170870	-0.169711	 3.972113	 10.131830	-0.863745	 7.026198	 5.110502	-2.497912	 8.604669	 2.733835	 0.364922	-112.101300	 89.167490	-156.587500	 51.110800	 55.614470	-76.291990	-3.697083	-4.277209	-27.377560	 3.418433	-10.513420	-5.454100	-3.812334	 37.924440	-2.927599	-2.450526	 36.184240	 0.754587	-1.378229	 35.397820	-2.634230	 0.422494	 0.739740	-0.609526	 2.747178	 6.846696	-0.161263	 94.899090	 86.673450	 170.894700	-49.503060	 65.496120	 72.262990	-2.628658	-13.852720	 30.888490	-20.543980	-11.518900	 9.761150	 6.437017	 35.671460	-0.771858	 2.830251	 35.756010	-7.813440	-2.350882	 35.473990	 5.254307
-8.961881	-21.842900	-0.326098	-49.020330	 9.087041	 1.702206	 4.790410	-29.704560	 173.945400	-2.744749	-49.865090	-0.955636	 1.715724	 87.450250	-2.691669	-2.381411	 29.403300	-0.020675	-2.096974	-30.562980	-178.371800	 0.001906	-50.269920	 0.573390	-3.249722	 87.847500	 3.903780	 2.405151	 21.200990	-0.149162	 3.996260	 11.207760	-0.950422	 7.009248	 4.552459	-2.505895	 8.587096	 1.997591	 0.419377	-112.103100	 89.088930	-156.271000	 48.987080	 54.812570	-75.839110	-4.398611	-4.357143	-30.335320	 2.939137	-10.520510	-5.455050	-3.812334	 37.924440	-2.927599	-2.450526	 36.184240	 0.754587	-1.378229	 35.397820	-2.634230	 0.516882	-0.157512	-0.729386	 2.755719	 6.278158	 0.347748	 94.842460	 86.465260	 170.643900	-47.371720	 64.104270	 72.265920	-1.962493	-14.218710	 32.841190	-19.973490	-11.515950	 9.773266	 6.437017	 35.671460	-0.771858	 2.830251	 35.756010	-7.813440	-2.350882	 35.473990	 5.254307
-8.950796	-21.834210	-0.337999	-49.385880	 9.697963	 1.808596	 4.676793	-33.121340	 173.628600	-3.383410	-53.762540	-1.583526	 4.636766	 88.533930	-5.973469	-2.379548	 29.778260	-0.028911	-2.017737	-34.045910	-178.341600	 0.154698	-54.032770	 0.836384	-7.372648	 88.742280	 8.153836	 2.403322	 22.336690	-0.126307	 4.037461	 12.461960	-1.081343	 7.019691	 3.937888	-2.593396	 8.597268	 1.094792	 0.487572	-112.636200	 89.028430	-155.401100	 46.741890	 54.402270	-75.149960	-5.854120	-4.108589	-33.248660	 1.966552	-10.536900	-5.456078	-3.812334	 37.924440	-2.927599	-2.450526	 36.184240	 0.754587	-1.378229	 35.397820	-2.634230	 0.652427	-1.124506	-0.897943	 2.795573	 5.420724	 0.950570	 94.688770	 86.213640	 170.492000	-44.696760	 62.721600	 71.588010	-1.228962	-14.504740	 34.806400	-19.353000	-11.539250	 9.763912	 6.437017	 35.671460	-0.771858	 2.830251	 35.756010	-7.813440	-2.350882	 35.473990	 5.254307
-8.938097	-21.824420	-0.353046	-49.817400	 10.712970	 1.942720	 4.356241	-37.461160	 173.191400	-4.519538	-58.396830	-2.795619	 31.808010	 89.769300	-33.703590	-2.377402	 30.193150	-0.038076	-1.950119	-38.472400	-178.339700	 0.386188	-58.452360	 1.176969	-56.141480	 89.819780	 57.033180	 2.401356	 23.312990	-0.106480	 4.099527	 13.714750	-1.230800	 7.050361	 3.282151	-2.663564	 8.628532	 0.142845	 0.560906	-113.524800	 88.983940	-154.169100	 44.884630	 54.619830	-74.187160	-7.722802	-3.623135	-35.729440	 0.791012	-10.538850	-5.459802	-3.812334	 37.924440	-2.927599	-2.450526	 36.184240	 0.754587	-1.378229	 35.397820	-2.634230	 0.826033	-2.183218	-1.154900	 2.839846	 4.540877	 1.732465	 94.483480	 85.947250	 170.417800	-42.413730	 62.275490	 70.518980	-0.255565	-14.711240	 36.214870	-18.954210	-11.551160	 9.771563	 6.437017	 35.671460	-0.771858	 2.830251	 35.756010	-7.813440	-2.350882	 35.473990	 5.254307
-8.925563	-21.814940	-0.370878	-50.483280	 11.869740	 2.143168	 4.048152	-41.986450	 172.745800	-6.207925	-63.234840	-4.536133	 172.263400	 88.901040	-174.737000	-2.373848	 30.847780	-0.052654	-1.683730	-43.174420	-178.298800	 0.763325	-63.173540	 1.800813	-172.488100	 88.907650	 173.573900	 2.398925	 24.316540	-0.085897	 4.296645	 14.961920	-1.274711	 7.177567	 2.718159	-2.691321	 8.643188	-0.792544	 0.632212	-114.637900	 88.954890	-152.727300	 43.595830	 55.416240	-72.278470	-9.076735	-3.269792	-37.136800	 0.057528	-10.581340	-5.459888	-3.812334	 37.924440	-2.927599	-2.450526	 36.184240	 0.754587	-1.378229	 35.397820	-2.634230	 1.006009	-3.206955	-1.450909	 2.836889	 3.687845	 2.390641	 94.249330	 85.717190	 170.481700	-40.679520	 62.903130	 68.491340	 0.858160	-14.673150	 36.817720	-18.601380	-11.573990	 9.775958	 6.437017	 35.671460	-0.771858	 2.830251	 35.756010	-7.813440	-2.350882	 35.473990	 5.254307
